# xmcd CD database file
#
# Track frame offsets:
#	150
#	45973
#	65380
#	84940
#	98065
#	111650
#	120855
#	138378
#	151718
#	164108
#	179993
#	190255
#	212675
#	248143
#
# Disc length: 3631 seconds
#
# Revision: 2
# Processed by: cddbd v1.4PL0 Copyright (c) Steve Scherf et al.
# Submitted via: CDex 1.40Beta8
#
DISCID=bd0e2d0e
DTITLE=The Best Of Dutch Blues - Disc 2 - The Best Of Dutch Blues - Disc 2
DYEAR=1900
DGENRE=
TTITLE0=Hoochie Coochie Man - Mojo Working' - Livin' Blues
TTITLE1=Rob Hoeke - Fool Side
TTITLE2=Oscar Benton - I Feel So Good
TTITLE3=Bintangs - Travelin' In The USA
TTITLE4=Cuby and The Blizzards - Downhearted Woman
TTITLE5=Herman Brood - Heartbreak Hotel
TTITLE6=Kaz Lux and John Schuursma - Hey Joe
TTITLE7=Flavium - Back Door Man
TTITLE8=BJ Hegen - One Way Call
TTITLE9=Shakey Sam - Big Car Blues
TTITLE10=John The Revelator - Just A Little Bit
TTITLE11=Eelco Gelling and The Blues Connection - Feel So Bad
TTITLE12=Sketch - Have You Ever Loved A Woman
TTITLE13=Blue Horizon - Black Night Is Fallin'
EXTD=
EXTT0=
EXTT1=
EXTT2=
EXTT3=
EXTT4=
EXTT5=
EXTT6=
EXTT7=
EXTT8=
EXTT9=
EXTT10=
EXTT11=
EXTT12=
EXTT13=
PLAYORDER=
